<svg width="152" height="43" viewBox="0 0 152 43" fill="none" xmlns="http://www.w3.org/2000/svg">
<path fill-rule="evenodd" clip-rule="evenodd" d="M0.603516 16.43V32.43H5.60352C6.12878 32.43 6.64893 32.5334 7.13428 32.7345C7.61951 32.9355 8.06055 33.2301 8.43188 33.6016C8.80334 33.973 9.09802 34.414 9.29907 34.8993C9.5 35.3846 9.60352 35.9047 9.60352 36.43V41.43H21.6035L36.6035 26.43V10.43H31.6035C31.0782 10.43 30.5581 10.3265 30.0728 10.1255C29.5875 9.9245 29.1465 9.62985 28.7751 9.25842C28.4037 8.88699 28.109 8.44601 27.908 7.96072C27.707 7.47543 27.6035 6.95529 27.6035 6.42999V1.42999H15.6035L0.603516 16.43ZM17.6035 31.43H10.6035V20.43L19.6035 11.43H26.6035V22.43L17.6035 31.43Z" fill="#4F32C3"/>
<path d="M61.93 34.5H56.89L49.18 16.5H54.43L59.47 28.74H59.59L64.48 16.5H69.64L61.93 34.5ZM75.94 34.83C73.82 34.83 72.16 34.3167 70.96 33.29C69.76 32.2567 69.16 30.9 69.16 29.22C69.16 27.44 69.78 26.07 71.02 25.11C72.26 24.15 74.04 23.67 76.36 23.67H81.52V22.98C81.52 21.04 80.36 20.07 78.04 20.07C76.02 20.07 74.8 20.77 74.38 22.17H69.43C69.83 20.19 70.76 18.69 72.22 17.67C73.68 16.65 75.62 16.14 78.04 16.14C80.72 16.14 82.7633 16.74 84.17 17.94C85.5833 19.14 86.29 20.89 86.29 23.19V29.58H88.63V34.5H83.59V31.56H82.33C81.71 32.6 80.88 33.4067 79.84 33.98C78.8 34.5467 77.5 34.83 75.94 34.83ZM76.69 31.05C77.63 31.05 78.46 30.88 79.18 30.54C79.9 30.2 80.47 29.7467 80.89 29.18C81.31 28.6067 81.52 27.96 81.52 27.24V26.97H76.6C74.8 26.97 73.9 27.64 73.9 28.98C73.9 29.64 74.15 30.15 74.65 30.51C75.15 30.87 75.83 31.05 76.69 31.05ZM96.01 34.5H91.03V21.42H88.57V16.5H93.61V19.44H94.87C95.57 18.4 96.45 17.5933 97.51 17.02C98.57 16.4533 99.89 16.17 101.47 16.17C103.97 16.17 105.907 16.8533 107.28 18.22C108.647 19.5933 109.33 21.43 109.33 23.73V34.5H104.35V24.66C104.35 23.34 103.993 22.3333 103.28 21.64C102.573 20.9533 101.54 20.61 100.18 20.61C98.82 20.61 97.7867 20.9533 97.08 21.64C96.3667 22.3333 96.01 23.34 96.01 24.66V34.5ZM123.22 34.5H117.76C116.48 34.5 115.487 34.1733 114.78 33.52C114.067 32.8733 113.71 31.88 113.71 30.54V20.4H110.62V16.5H113.77V11.1H118.63V16.5H122.8V20.4H118.69V30.6H123.22V34.5ZM129.91 34.5H124.93V16.5H129.91V34.5ZM127.42 14.73C126.66 14.73 126.013 14.4633 125.48 13.93C124.953 13.4033 124.69 12.76 124.69 12C124.69 11.24 124.953 10.5933 125.48 10.06C126.013 9.53333 126.66 9.27 127.42 9.27C128.18 9.27 128.827 9.53333 129.36 10.06C129.887 10.5933 130.15 11.24 130.15 12C130.15 12.76 129.887 13.4033 129.36 13.93C128.827 14.4633 128.18 14.73 127.42 14.73ZM141.58 34.86C139.62 34.86 137.917 34.4733 136.47 33.7C135.017 32.9333 133.89 31.85 133.09 30.45C132.29 29.05 131.89 27.39 131.89 25.47C131.89 23.57 132.287 21.92 133.08 20.52C133.867 19.12 134.99 18.04 136.45 17.28C137.91 16.52 139.63 16.14 141.61 16.14C143.57 16.14 145.27 16.52 146.71 17.28C148.15 18.04 149.26 19.12 150.04 20.52C150.82 21.92 151.21 23.58 151.21 25.5C151.21 27.4 150.82 29.0533 150.04 30.46C149.26 31.8733 148.147 32.96 146.7 33.72C145.247 34.48 143.54 34.86 141.58 34.86ZM141.58 30.54C143.08 30.54 144.23 30.0867 145.03 29.18C145.83 28.2667 146.23 27.03 146.23 25.47C146.23 23.91 145.83 22.6833 145.03 21.79C144.23 20.9033 143.08 20.46 141.58 20.46C140.06 20.46 138.897 20.9033 138.09 21.79C137.277 22.6833 136.87 23.91 136.87 25.47C136.87 27.03 137.277 28.2667 138.09 29.18C138.897 30.0867 140.06 30.54 141.58 30.54Z" fill="white"/>
</svg>
